<svg width="385" height="90" viewBox="0 0 385 90" fill="none" xmlns="http://www.w3.org/2000/svg">
<path d="M78.3459 17.0135C77.3252 15.7375 76.2193 14.5466 75.1985 13.4408C74.1777 12.3349 73.0718 11.3141 71.966 10.3784C70.8601 9.44264 69.7543 8.59198 68.6484 7.82638C67.5425 7.06079 66.4367 6.38026 65.2457 5.69973C64.1399 5.0192 62.949 4.5088 61.8431 3.99841C60.7372 3.48801 59.5463 3.06269 58.3554 2.63736C57.2495 2.21202 56.0586 1.87176 54.8677 1.53149C53.6768 1.19123 52.4858 0.936021 51.38 0.765889C49.0832 0.340558 46.7013 0.0853699 44.4045 0.0853699C42.1078 0.000303701 39.811 0.0853647 37.5142 0.425629C35.3025 0.680828 33.0907 1.10615 30.9641 1.61655C28.8374 2.21201 26.7958 2.89254 24.7543 3.74321C22.7977 4.59387 20.8412 5.61466 19.0548 6.72052C17.2684 7.82638 15.5671 9.10237 13.9509 10.5485C12.3346 11.9946 10.8885 13.5258 9.61248 15.1421C8.25142 16.8434 7.06049 18.6298 6.0397 20.5013C5.5293 21.437 5.01891 22.4578 4.59357 23.3935C4.16824 24.3292 3.74291 25.4351 3.31758 26.4559C2.89225 27.4767 2.55199 28.4975 2.29679 29.6033C1.95652 30.6241 1.70132 31.73 1.44613 32.8358C1.19093 33.9417 1.0208 34.9625 0.765597 36.0684C0.510398 37.1742 0.425332 38.195 0.340266 39.3009C0.2552 40.4067 0.170131 41.4275 0.0850649 42.4483C-1.29927e-06 43.4691 0 44.4899 0 45.4256C0 46.8718 0.0850668 48.3179 0.170133 49.6789C0.255199 51.04 0.42533 52.4011 0.680529 53.6771C1.10586 56.229 1.70132 58.696 2.46692 61.1629C3.23252 63.4597 4.08317 65.5863 5.18904 67.713C6.20983 69.6695 7.40076 71.541 8.67675 73.3274C11.1437 76.6449 14.121 79.5372 17.5236 81.919C19.1399 83.1099 20.8412 84.1307 22.6276 84.9814C24.414 85.9171 26.2854 86.6827 28.1569 87.2782C30.0284 87.9587 31.9849 88.4691 34.0265 88.8945C38.1096 89.7451 42.2779 90.0003 46.3611 89.8302C47.3819 89.7451 48.4877 89.66 49.5936 89.575C50.6994 89.4899 51.7202 89.3198 52.8261 89.0646C53.932 88.8945 54.9527 88.6393 56.0586 88.299C57.1645 87.9587 58.2703 87.7035 59.2911 87.2782C60.397 86.8529 61.5028 86.4275 62.5236 85.9171C63.6295 85.4067 64.6503 84.8113 65.7562 84.2158C66.862 83.6204 67.8828 82.9398 68.9887 82.1742C70.0945 81.4086 71.1153 80.558 72.2212 79.7073C73.327 78.7716 74.3478 77.8359 75.3686 76.73C76.3894 75.6241 77.4953 74.4332 78.5161 73.1572L69.5841 65.6714C53.4216 87.7886 12.5898 81.7489 12.5898 44.7451C12.5898 7.91146 52.9112 2.21203 69.5841 24.4143L78.3459 17.0135Z" fill="white"/>
<path d="M351.663 89.9999L384.329 0.0849609L371.994 0.0849609L339.244 89.9999H351.663Z" fill="white"/>
<path d="M151.163 31.985L172.344 90.0002H184.679L157.373 14.8867L151.163 31.985Z" fill="white"/>
<path d="M117.647 89.9999L150.397 0.0849609L137.978 0.0849609L105.227 89.9999H117.647Z" fill="white"/>
<path d="M332.268 75.1133L338.478 58.1001L317.297 0.0849609L304.962 0.0849609L332.268 75.1133Z" fill="white"/>
<path d="M243.715 55.0378L266.427 90L279.613 90L255.879 55.0378C271.021 51.8053 277.231 41.5974 277.231 28.4972C277.231 8.33648 262.429 0 247.798 0L237.165 0V11.6541L246.352 11.6541C261.238 11.6541 265.917 19.6503 265.917 28.4121C265.917 29.0076 265.917 29.603 265.832 30.1985C265.747 30.794 265.662 31.3044 265.577 31.8998C265.492 32.4102 265.322 33.0057 265.151 33.5161C264.981 34.0265 264.811 34.5369 264.556 35.0473C264.301 35.4726 264.046 35.983 263.79 36.4083C263.535 36.8336 263.28 37.259 262.94 37.5993C262.599 38.0246 262.344 38.3648 262.004 38.7051C261.664 39.0454 261.323 39.3856 261.068 39.6408C260.813 39.896 260.388 40.2363 260.047 40.4915C259.707 40.7467 259.367 41.0019 259.027 41.172C258.686 41.4272 258.261 41.5974 257.836 41.7675C257.41 41.9376 256.985 42.1078 256.475 42.2779C255.879 42.448 255.369 42.6182 254.773 42.7032C254.433 42.7883 254.093 42.7883 253.667 42.8733C253.242 42.9584 252.902 42.9584 252.391 43.0435C251.881 43.1286 251.456 43.1286 250.945 43.1286L249.244 43.2136L247.202 43.2987H244.736H237.08V54.9528L243.715 55.0378Z" fill="white"/>
<path d="M225.51 0.0849609L213.856 0.0849609L213.856 89.9999H225.51L225.51 0.0849609Z" fill="white"/>
</svg>
